<?xml version="1.0" encoding="UTF-8"?><svg id="Calque_2" xmlns="http://www.w3.org/2000/svg" xmlns:xlink="http://www.w3.org/1999/xlink" viewBox="0 0 549.52 100.32"><defs><style>.cls-1{fill:#c4a460;}.cls-2{fill:url(#Dégradé_sans_nom_13-12);}.cls-3{fill:url(#Dégradé_sans_nom_13-11);}.cls-4{fill:url(#Dégradé_sans_nom_13-10);}.cls-5{fill:url(#Dégradé_sans_nom_13);}.cls-6{fill:url(#Dégradé_sans_nom_13-5);}.cls-7{fill:url(#Dégradé_sans_nom_13-7);}.cls-8{fill:url(#Dégradé_sans_nom_13-6);}.cls-9{fill:url(#Dégradé_sans_nom_13-4);}.cls-10{fill:url(#Dégradé_sans_nom_13-3);}.cls-11{fill:url(#Dégradé_sans_nom_13-9);}.cls-12{fill:url(#Dégradé_sans_nom_13-8);}.cls-13{fill:url(#Dégradé_sans_nom_13-2);}</style><linearGradient id="Dégradé_sans_nom_13" x1="424.06" y1="55.79" x2="498.8" y2="55.79" gradientUnits="userSpaceOnUse"><stop offset="0" stop-color="#e9511d"/><stop offset="1" stop-color="#e61778"/></linearGradient><linearGradient id="Dégradé_sans_nom_13-2" x1="506.26" y1="64.91" x2="549.44" y2="64.91" xlink:href="#Dégradé_sans_nom_13"/><linearGradient id="Dégradé_sans_nom_13-3" x1="274.8" y1="55.76" x2="317.95" y2="55.76" xlink:href="#Dégradé_sans_nom_13"/><linearGradient id="Dégradé_sans_nom_13-4" x1="376.49" y1="46.25" x2="419.66" y2="46.25" xlink:href="#Dégradé_sans_nom_13"/><linearGradient id="Dégradé_sans_nom_13-5" x1="191.2" y1="55.74" x2="234.34" y2="55.74" xlink:href="#Dégradé_sans_nom_13"/><linearGradient id="Dégradé_sans_nom_13-6" x1="144.22" y1="50.41" x2="187.47" y2="50.41" xlink:href="#Dégradé_sans_nom_13"/><linearGradient id="Dégradé_sans_nom_13-7" x1="320.09" y1="55.87" x2="363.29" y2="55.87" xlink:href="#Dégradé_sans_nom_13"/><linearGradient id="Dégradé_sans_nom_13-8" x1="363.22" y1="19.75" x2="397.8" y2="19.75" xlink:href="#Dégradé_sans_nom_13"/><linearGradient id="Dégradé_sans_nom_13-9" x1="241.46" y1="50.4" x2="248.7" y2="50.4" xlink:href="#Dégradé_sans_nom_13"/><linearGradient id="Dégradé_sans_nom_13-10" x1="260.01" y1="55.79" x2="267.2" y2="55.79" xlink:href="#Dégradé_sans_nom_13"/><linearGradient id="Dégradé_sans_nom_13-11" x1="257.44" y1="23.34" x2="269.73" y2="23.34" xlink:href="#Dégradé_sans_nom_13"/><linearGradient id="Dégradé_sans_nom_13-12" x1="0" y1="50.16" x2="100.32" y2="50.16" xlink:href="#Dégradé_sans_nom_13"/></defs><g id="Calque_1-2"><path class="cls-1" d="m549.52,75.55l-.04.02s-.04,0-.04,0c0-.41,0-.81,0-1.22,0-6.34-.01-12.69-.02-19.03,0-.2.01-.41.02-.61.03-.01.06,0,.08.01v20.84Z"/><path class="cls-5" d="m435.18,52.59c-.57.52-1.05.97-1.53,1.41-2.27,2.08-4.54,4.17-7,6.03-.41.31-.83.59-1.27.86-.36.21-.82.61-1.15.31-.38-.33,0-.83.18-1.21.37-.81.84-1.55,1.33-2.29,2.7-4.04,5.73-7.83,8.81-11.57,1.97-2.39,3.97-4.76,6.13-6.98,2.54-2.62,5.67-4.16,9.25-4.71,4.49-.69,8.7.14,12.56,2.6,1.61,1.03,3.01,2.29,4.19,3.78.25.32.35.32.61,0,2.76-3.3,6.23-5.43,10.48-6.25,9.58-1.84,18.53,4.07,20.61,13.59.28,1.28.42,2.59.42,3.9,0,7.15,0,14.3,0,21.45,0,2.03-1.17,3.47-3.06,3.81-1.95.35-3.96-1.22-4.1-3.2-.01-.2-.01-.41-.01-.61,0-7.17,0-14.33,0-21.5,0-2.85-.94-5.36-2.96-7.38-2.88-2.89-6.38-3.9-10.3-2.82-3.97,1.09-6.43,3.78-7.46,7.77-.21.81-.26,1.64-.26,2.48,0,7.22,0,14.44,0,21.65,0,1.58-.96,2.95-2.4,3.46-1.47.52-3.07.09-4.07-1.11-.58-.69-.83-1.5-.83-2.41,0-7.18,0-14.37,0-21.55,0-5.26-3.42-9.46-8.57-10.5-5.79-1.18-11.71,3.14-12.32,9-.06.58-.09,1.15-.09,1.73,0,7.12.01,14.23.02,21.35,0,2.07-1.62,3.73-3.61,3.71-1.97-.02-3.55-1.58-3.57-3.58-.02-1.91,0-3.81,0-5.72,0-4.94,0-9.87,0-14.81,0-.18,0-.36,0-.67Z"/><path class="cls-13" d="m549.44,54.7c0,.2-.02.41-.02.61,0,6.34.01,12.69.02,19.03,0,.41,0,.81,0,1.22-.52,6.75-3.51,12.18-9.01,16.1-10.69,7.63-25.54,4.03-31.67-7.59-.38-.72-.78-1.43-.88-2.27-.2-1.72.86-3.33,2.53-3.84,1.68-.51,3.48.22,4.23,1.79.8,1.67,1.78,3.21,3.1,4.52,5.45,5.43,14.3,5.57,19.89.29,3.05-2.88,4.56-6.45,4.6-10.64,0-.61,0-1.23,0-1.84,0-.03-.03-.05-.07-.14-.2.16-.39.31-.58.46-8.23,6.84-20.57,6.51-28.38-.81-4.59-4.31-6.91-9.65-6.94-15.95-.03-5.94,0-11.88,0-17.83,0-1.93,1.33-3.4,3.26-3.62,1.77-.2,3.44,1.01,3.85,2.8.07.3.07.61.07.91,0,5.77,0,11.54,0,17.31,0,3.88,1.27,7.29,3.96,10.09,3.2,3.33,7.15,4.86,11.76,4.41,6.62-.64,11.63-5.33,12.85-11.87.14-.74.19-1.48.19-2.23,0-5.92,0-11.85,0-17.77,0-1.47.62-2.61,1.94-3.29,1.24-.64,2.51-.57,3.69.2,1.07.7,1.59,1.73,1.59,3.02,0,5.64.01,11.27.02,16.91Z"/><path class="cls-10" d="m298.58,59.4c-5.18,0-10.36,0-15.54,0q-.6,0-.43.57c1.74,5.64,6.74,9.66,12.65,10.08,4.6.33,8.85-.7,12.65-3.38,1.68-1.19,3.97-.74,5.18.98,1.13,1.62.73,3.75-.96,4.94-3.77,2.64-7.96,4.17-12.54,4.61-4.12.4-8.15.09-11.93-1.69-7.06-3.32-11.39-8.83-12.6-16.56-1.75-11.16,5.45-21.75,16.49-24.2,7.42-1.65,14.04.18,19.66,5.34,3.71,3.41,5.86,7.65,6.56,12.64.12.89.11,1.8.17,2.7.14,2.13-1.45,4.02-4.02,3.99-5.11-.05-10.22-.02-15.33-.02Zm-16.13-7.26c.15,0,.27.02.38.02,9,0,17.99,0,26.99,0,.36,0,.46-.04.35-.44-1.6-5.72-7.15-10.11-13.1-10.28-4.94-.15-8.99,1.7-12.09,5.56-1.22,1.51-2.05,3.23-2.53,5.14Z"/><path class="cls-9" d="m400.41,49.91c-5.25,0-10.5,0-15.75-.01-.47,0-.53.11-.39.53,1.89,5.53,5.67,9.02,11.45,9.98,5.03.83,9.75-.26,13.96-3.23,1.63-1.15,3.86-.77,5.07.89,1.17,1.62.81,3.79-.84,4.95-3.85,2.72-8.14,4.27-12.83,4.68-4.12.36-8.15.02-11.92-1.81-7.08-3.43-11.34-9.04-12.45-16.85-1.59-11.24,6.06-21.82,17.18-23.96,11.53-2.22,22.56,4.89,25.23,16.28.39,1.64.57,3.32.54,5.01-.03,1.94-1.6,3.54-3.55,3.54-5.23,0-10.46,0-15.7,0Zm11.55-7.27c-.02-.12-.04-.2-.06-.28-.87-3.07-2.61-5.57-5.12-7.48-3.07-2.34-6.58-3.27-10.43-2.86-5.55.6-10.43,4.66-12.05,10.03q-.18.6.45.6c8.88,0,17.75,0,26.63,0h.58Z"/><path class="cls-6" d="m215.06,59.37c-5.21,0-10.43,0-15.64,0-.6,0-.63,0-.43.58,1.93,5.61,5.81,9.08,11.68,9.96,4.92.74,9.54-.36,13.66-3.25,1.67-1.17,3.98-.72,5.15.97,1.16,1.67.75,3.77-.97,4.97-4.52,3.14-9.55,4.65-15.05,4.73-4.39.07-8.49-.91-12.17-3.31-5.6-3.64-8.96-8.78-9.89-15.42-1.43-10.26,4.79-20.25,14.7-23.32,7.95-2.46,15.18-.88,21.35,4.73,4.58,4.16,6.78,9.48,6.89,15.64.04,2.16-1.57,3.72-3.74,3.72-5.18,0-10.36,0-15.54,0Zm11.52-7.21c-.03-.12-.04-.2-.06-.28-1.84-6.91-9.06-11.54-16.12-10.26-5.75,1.04-9.56,4.39-11.41,9.93-.2.59-.18.6.43.6,8.88,0,17.75,0,26.63,0,.17,0,.34,0,.53,0Z"/><path class="cls-8" d="m151.43,39.6c.66-.51,1.24-1,1.86-1.44,4.26-3.04,9.03-4.35,14.22-3.88,8.91.8,15.16,5.5,18.35,13.72,3.27,8.44,1.51,16.18-4.65,22.84-3.08,3.32-6.89,5.42-11.36,6.18-7.28,1.23-13.7-.58-19.07-5.75-3.3-3.18-5.41-6.99-6.24-11.51-.2-1.07-.31-2.16-.32-3.24,0-9.79,0-19.58,0-29.37,0-2.12,1.53-3.7,3.59-3.7,2.09,0,3.63,1.56,3.63,3.71,0,3.95,0,7.9,0,11.85,0,.18,0,.36,0,.6Zm-.04,16.16c0,7.9,6.41,14.3,14.23,14.38,8.47.08,14.57-6.9,14.57-14.25,0-7.94-6.35-14.33-14.06-14.51-8.29-.19-14.83,6.68-14.74,14.38Z"/><path class="cls-7" d="m341.68,65.77c1.61-3.22,3.18-6.36,4.76-9.5,3.31-6.61,6.61-13.22,9.92-19.82,1.28-2.55,4.64-2.84,6.25-.54.83,1.19.87,2.46.22,3.76-2.45,4.89-4.9,9.78-7.36,14.67-3.5,6.97-7,13.94-10.49,20.92-.69,1.37-1.77,2.18-3.3,2.17-1.56,0-2.69-.77-3.4-2.19-5.06-10.16-10.12-20.32-15.19-30.47-.86-1.72-1.68-3.46-2.58-5.15-1.04-1.96-.12-4.07,1.5-4.89,1.84-.93,3.99-.22,4.94,1.68,2.64,5.25,5.27,10.51,7.9,15.77,2.18,4.36,4.37,8.72,6.55,13.08.08.15.16.3.27.52Z"/><path class="cls-12" d="m386.79,12.03c.68-1.85,1.29-3.66,1.26-5.63-.02-1.14.48-1.44,1.52-.92,1.62.82,3.04,1.92,4.32,3.22,2.03,2.06,3.33,4.47,3.83,7.33.59,3.44-1.92,6.73-5.4,7.02-.15.01-.32.08-.45.04-1-.26-1.57.3-2.24.93-1.21,1.13-2.71,1.67-4.39,1.57-.29-.02-.46.07-.62.32-.79,1.23-1.87,2.1-3.27,2.55-.22.07-.31.18-.34.42-.51,3.81-4.12,6.13-7.83,5.18-1.81-.47-2.95-1.68-4.06-3-.82-.98-1.62-1.97-2.45-2.94-.71-.82-1.54-1.48-2.46-2.05-.09-.05-.17-.11-.26-.16-.93-.6-.96-1.2-.04-1.8,2.21-1.42,4.66-2.21,7.26-2.5.3-.03.6-.05.95-.08-.58-1.42-1.27-2.71-2.31-3.79-.2-.21-.4-.42-.55-.66-.33-.51-.22-.89.37-1.13.89-.37,1.82-.56,2.77-.66,2.2-.25,4.38-.22,6.53.38.3.08.38,0,.38-.3,0-1.59-.13-3.16-.7-4.66-.05-.13-.08-.26-.1-.39-.13-.66.12-1,.8-.97,1.37.06,2.68.42,3.96.89,1.23.46,2.39,1.06,3.55,1.79Z"/><path class="cls-11" d="m248.68,50.44c0,7.71-.03,15.42.02,23.13.01,1.88-1.41,3.75-3.46,3.8-2.11.05-3.7-1.52-3.78-3.71,0-.1,0-.2,0-.31,0-15.32,0-30.64,0-45.96,0-2,1.01-3.42,2.75-3.86,2.28-.58,4.47,1.12,4.47,3.47,0,7.81,0,15.63,0,23.44Z"/><path class="cls-4" d="m267.2,55.75c0,5.99,0,11.98,0,17.97,0,2.07-1.64,3.7-3.65,3.65-1.98-.05-3.54-1.63-3.54-3.62,0-12,0-24,0-36,0-2.02,1.57-3.56,3.61-3.56,2.03,0,3.57,1.5,3.57,3.53,0,6.01,0,12.02,0,18.02Z"/><path class="cls-3" d="m257.44,26.2c-.06-1.79.82-3.23,1.71-4.66.94-1.51,1.99-2.97,2.63-4.64.21-.54.35-1.1.48-1.66.29-1.15.77-1.32,1.71-.55,1.37,1.12,2.49,2.45,3.45,3.93,1.54,2.38,2.35,4.95,2.3,7.79-.05,3.18-2.44,5.8-5.52,6.02-3.4.24-6.24-1.96-6.71-5.21-.05-.33-.04-.68-.05-1.02Z"/><path class="cls-2" d="m88.32,0H12C5.4,0,0,5.4,0,12v76.32c0,6.6,5.4,12,12,12h76.32c6.6,0,12-5.4,12-12V12c0-6.6-5.4-12-12-12Zm-15.4,65.04c-.19,2.14-.71,4.2-1.49,6.2-.67,1.73-1.54,3.37-2.53,4.94-.14.21-.27.42-.4.63-.38.59-.85,1.09-1.42,1.49-.36.25-.73.52-1.09.78-.03.02-.06.06-.1.04,0-.08.03-.15.05-.21.21-.63.41-1.25.63-1.88.24-.72.48-1.44.66-2.17.12-.45.21-.91.26-1.38.1-.82.06-1.64-.2-2.43-.12-.36-.27-.71-.48-1.03-.48-.74-1.15-1.23-2-1.44-1.08-.26-2.09-.06-3.02.53-.54.34-.98.79-1.31,1.34-.24.4-.47.82-.71,1.22-.21.36-.44.72-.7,1.05-.17.22-.36.42-.57.6-.1.08-.19.15-.3.2-.4.21-.78.18-1.13-.11-.15-.12-.27-.26-.39-.41-.24-.32-.42-.7-.57-1.07-.26-.62-.45-1.27-.63-1.92-.22-.82-.39-1.66-.54-2.49-.05-.27-.08-.53-.12-.8-.09-.51-.19-1.01-.36-1.5-.06-.17-.14-.34-.23-.5-.06-.11-.13-.21-.22-.3-.24-.25-.52-.31-.83-.16-.23.1-.4.25-.58.41-.25.24-.48.52-.68.79-.44.6-.82,1.22-1.2,1.86-.57.97-1.12,1.96-1.66,2.94-.61,1.09-1.22,2.19-1.88,3.26-.46.75-.95,1.49-1.49,2.17-.32.4-.65.78-1.01,1.13-.32.3-.65.57-1.03.77-.27.15-.54.24-.85.27-.3.03-.58-.02-.86-.15-.23-.1-.43-.24-.61-.4-.27-.25-.54-.49-.82-.73-.35-.27-.72-.53-1.13-.7-.34-.15-.7-.21-1.07-.2-.19,0-.39.03-.58.09-.48.13-.9.35-1.27.67-.48.4-.74.91-.82,1.51-.06.42-.03.84.02,1.26.04.3.11.61.17.9,0,.03.02.07.02.11,0,.25,0,.5-.04.75,0,.03-.03.05-.07.03-.03-.02-.07-.06-.1-.08-.82-.67-1.6-1.39-2.33-2.15-1.39-1.46-2.59-3.05-3.55-4.81-.76-1.39-1.34-2.85-1.77-4.37-.22-.8-.4-1.6-.52-2.42-.08-.48-.14-.96-.19-1.44-.14-.97-.15-1.93-.15-2.9,0-.48.02-.94.06-1.41.06-.76.15-1.51.27-2.26.19-1.13.48-2.24.85-3.31.85-2.47,2.09-4.71,3.73-6.73,1.13-1.4,2.42-2.63,3.86-3.7,0,0,.02-.02.03-.02.16-.12.15-.1.19.08.06.24.03.48-.06.72-.06.15-.12.3-.2.43-.25.4-.42.85-.55,1.31-.16.57-.32,1.16-.41,1.75-.06.37-.11.75-.13,1.13,0,.21-.03.43-.02.65.03,1.62.48,3.11,1.38,4.45.45.67,1.02,1.22,1.71,1.62.54.32,1.13.53,1.75.62.61.1,1.23.09,1.84,0,.77-.11,1.49-.36,2.15-.76.87-.53,1.53-1.27,2-2.17.3-.58.49-1.2.61-1.84.12-.7.15-1.39.1-2.09-.06-.94-.25-1.84-.52-2.73-.29-.95-.65-1.86-1.07-2.75-.49-1.05-.92-2.12-1.29-3.22-.38-1.12-.68-2.25-.89-3.4-.1-.54-.19-1.09-.23-1.63-.04-.4-.08-.8-.09-1.2,0-.28-.02-.56-.02-.85,0-.54.02-1.08.07-1.62.23-2.51.91-4.88,2.08-7.12.81-1.55,1.86-2.92,3.14-4.1.87-.79,1.82-1.46,2.85-2.04.89-.5,1.82-.92,2.78-1.27.06-.02.11-.05.19-.06v.02h-.04c.02.07,0,.12-.02.17-.18.58-.36,1.16-.54,1.73-.15.48-.28.96-.36,1.46-.08.43-.13.87-.17,1.31-.06.64-.08,1.29-.06,1.92.08,2.25.69,4.33,1.86,6.26.51.83,1.11,1.6,1.77,2.32.98,1.06,1.96,2.12,2.96,3.16.91.95,1.82,1.91,2.72,2.86.74.79,1.5,1.58,2.24,2.38,1.53,1.66,2.94,3.4,4.22,5.27.8,1.17,1.53,2.38,2.17,3.64.78,1.5,1.44,3.05,1.94,4.66.31.99.56,2,.73,3.03.1.56.17,1.12.22,1.69.03.4.06.79.08,1.19,0,.34.02.67.02,1.01,0,.55-.04,1.1-.09,1.65Z"/></g></svg>